<svg height="100" viewBox="0 0 100 100" width="100" x="0px" xmlns="http://www.w3.org/2000/svg"
    y="0px">
    <path
        d="M 52.589844 3.7675781 C 42.571169 3.9350233 35.919736 10.075575 33.132812 12.777344 C 32.986908 12.918574 32.878842 13.049589 32.673828 13.300781 C 32.468814 13.551973 32.204947 13.890009 31.900391 14.306641 C 31.291277 15.139905 30.515701 16.291107 29.71875 17.699219 C 28.124848 20.515442 26.440917 24.357043 25.878906 28.720703 C 25.51754 31.523905 25.397996 38.947546 25.363281 43.048828 C 23.87546 43.362635 22.438431 43.648875 21.058594 44.857422 C 19.941061 45.835912 19.351572 46.981599 19.083984 48.091797 C 18.816397 49.201995 18.827581 50.264266 18.792969 51.248047 C 18.710489 53.597687 19.023443 57.048982 19.105469 59.21875 C 19.435297 68.041355 19.716065 76.878852 19.837891 85.699219 C 19.910851 90.97249 22.806797 93.983188 25.173828 94.986328 C 29.028004 96.620127 33.870038 96.08628 37.667969 95.306641 C 49.366463 92.905223 61.06872 89.378561 72.636719 86.658203 C 74.721771 86.168135 77.157912 85.597882 78.859375 83.740234 C 80.85048 81.565971 80.993851 78.568731 81.095703 76.054688 C 81.477051 66.609066 81.640894 59.504154 81.835938 48.056641 C 81.848727 47.297221 82.247006 44.510672 81.654297 41.791016 C 81.073573 39.126353 79.307406 36.315639 75.478516 35.517578 C 75.548788 33.100331 75.655147 30.706964 75.671875 28.189453 C 75.684885 26.284727 75.702025 24.31023 75.369141 22.320312 C 75.100917 20.719548 74.043229 17.140058 71.619141 13.464844 C 69.195005 9.7895824 65.364632 6.0621224 59.652344 4.6171875 C 57.904603 4.1751143 56.233396 3.9186258 54.638672 3.8164062 C 53.94098 3.7716852 53.257755 3.7564151 52.589844 3.7675781 z M 52.591797 5.7519531 C 53.211069 5.7433311 53.844 5.7595384 54.492188 5.8027344 C 55.973759 5.9014674 57.5296 6.1417607 59.162109 6.5546875 C 64.289821 7.8517526 67.713557 11.174917 69.949219 14.564453 C 72.18488 17.953989 73.195708 21.452155 73.396484 22.650391 C 73.691595 24.414473 73.68487 26.272508 73.671875 28.175781 C 73.650135 31.447857 73.436322 34.558279 73.414062 37.908203 C 73.410062 38.517829 73.367482 38.988782 73.226562 39.257812 C 73.037897 39.617903 72.512749 39.94565 71.841797 40.158203 C 70.150515 40.693653 68.582113 40.795823 67.046875 40.199219 C 66.889984 40.138226 66.654491 40.006756 66.404297 39.849609 C 66.46135 38.630235 66.532851 35.628341 66.359375 28.521484 C 66.073375 16.769484 57.024313 15.469625 52.695312 15.640625 C 52.695312 15.640625 52.772054 15.66274 52.777344 15.664062 C 51.781609 15.701583 50.77799 15.84093 49.771484 16.109375 C 46.439306 16.9981 43.649921 19.11422 41.363281 21.496094 C 40.709193 22.177048 40.073557 22.898824 39.501953 23.689453 C 37.460451 26.513353 36.455382 29.891994 35.970703 33.21875 C 35.458943 36.727066 36.117452 42.029381 35.978516 45.107422 C 35.958656 45.550637 35.540256 46.13957 34.759766 46.619141 C 33.979275 47.098711 32.921998 47.400391 32.173828 47.400391 C 30.74448 47.400391 29.699731 47.300575 28.957031 47.148438 C 28.950899 35.899814 28.612278 24.859185 34.304688 17.564453 C 37.636424 13.295387 43.327976 7.1062601 51.646484 5.8027344 C 51.961264 5.7852244 52.269164 5.7564451 52.591797 5.7519531 z M 53.433594 17.630859 C 55.142433 17.652174 56.792393 18.09344 58.417969 18.96875 C 59.94128 19.789184 61.30861 21.730571 62 23.523438 C 63.497705 27.40777 63.239195 31.398311 63.048828 35.769531 C 54.273285 37.337967 46.499131 38.681969 37.900391 40.214844 C 37.801766 37.73141 37.700773 35.220902 37.951172 33.505859 C 38.406493 30.380616 39.344549 27.321429 41.123047 24.861328 C 41.621443 24.171957 42.192776 23.517905 42.804688 22.880859 C 44.936048 20.660733 47.455288 18.798244 50.287109 18.042969 C 51.361205 17.756497 52.40829 17.61807 53.433594 17.630859 z M 77.976562 38.869141 C 78.931766 39.757856 79.420759 40.930118 79.701172 42.216797 C 80.192963 44.47339 79.858098 46.823856 79.837891 48.023438 C 79.642933 59.465924 79.478308 66.54623 79.097656 75.974609 C 78.997463 78.445879 78.763287 80.883342 77.384766 82.388672 C 76.210229 83.671024 74.238635 84.227005 72.179688 84.710938 C 60.529685 87.450579 48.84313 90.971074 37.265625 93.347656 C 35.167879 93.778282 32.762219 94.073611 30.498047 94 C 27.008968 93.242349 25.886449 90.948983 25.761719 88.195312 C 25.631719 85.326313 25.369859 51.782688 24.130859 50.304688 C 27.130859 51.804688 39.217281 48.738969 56.488281 45.542969 C 72.768406 42.53033 79.538875 42.073937 77.976562 38.869141 z M 73.923828 49.021484 A 2.191 2.6 33.511 0 0 71.78125 50.294922 A 2.191 2.6 33.511 0 0 75.433594 52.712891 A 2.191 2.6 33.511 0 0 73.923828 49.021484 z M 37.730469 56.408203 A 2.191 2.6 33.511 0 0 35.585938 57.679688 A 2.191 2.6 33.511 0 0 39.240234 60.099609 A 2.191 2.6 33.511 0 0 37.730469 56.408203 z M 57.640625 57.933594 C 56.995918 57.933641 56.329156 58.040234 55.660156 58.255859 C 53.956156 58.804859 52.424703 60.003812 51.345703 61.632812 C 49.118703 64.994812 49.513219 69.209438 52.199219 71.148438 L 52.201172 75.042969 C 52.148172 76.515969 52.770234 77.826734 53.865234 78.552734 C 54.467234 78.950734 55.155281 79.140625 55.863281 79.140625 C 57.377281 79.140625 58.977187 78.276141 59.992188 76.744141 C 60.607188 75.814141 60.939641 74.730406 60.931641 73.691406 C 60.925641 72.941406 60.929641 70.573141 60.931641 69.369141 C 61.187641 69.073141 61.422766 68.765313 61.634766 68.445312 C 63.907766 65.012313 63.449281 60.6905 60.613281 58.8125 C 59.732031 58.229375 58.715137 57.933516 57.640625 57.933594 z M 74.044922 75.369141 A 1.967 2.6 33.511 0 0 71.783203 76.705078 A 1.967 2.6 33.511 1 0 75.0625 78.876953 A 1.967 2.6 33.511 0 0 74.044922 75.369141 z M 38.373047 83.625 A 2.09 2.6 33.511 0 0 36.271484 84.923828 A 2.09 2.6 33.511 1 0 39.757812 87.232422 A 2.09 2.6 33.511 0 0 38.373047 83.625 z"></path>
</svg>